<svg xmlns="http://www.w3.org/2000/svg" viewBox="0 0 100 100">
  <circle cx="50" cy="50" r="50" fill="black"></circle>
  <g transform="translate(20, 30) scale(0.6)" fill="white">
    <path d="M70 20h-6.586l-3.707-3.707A1 1 0 0 0 58.586 16H41.414a1 1 0 0 0-.707.293L37 20H30a10 10 0 0 0-10 10v30a10 10 0 0 0 10 10h40a10 10 0 0 0 10-10V30a10 10 0 0 0-10-10zM50 65a15 15 0 1 1 15-15 15.017 15.017 0 0 1-15 15zm20-28a2 2 0 1 1 2-2 2 2 0 0 1-2 2z"></path>
    <circle cx="50" cy="50" r="10"></circle>
  </g>
</svg>
